<svg width="187" height="81" viewBox="0 0 187 81" fill="none" xmlns="http://www.w3.org/2000/svg">
<mask id="mask0_2518_62012" style="mask-type:alpha" maskUnits="userSpaceOnUse" x="0" y="0" width="80" height="81">
<path d="M39.9284 80.958C61.7794 80.958 79.4931 63.0494 79.4931 40.958C79.4931 18.8666 61.7794 0.958008 39.9284 0.958008C18.0775 0.958008 0.36377 18.8666 0.36377 40.958C0.36377 63.0494 18.0775 80.958 39.9284 80.958Z" fill="white"/>
</mask>
<g mask="url(#mask0_2518_62012)">
<path fill-rule="evenodd" clip-rule="evenodd" d="M88.463 11.9702C72.5392 11.9702 59.6305 25.021 59.6305 41.12C59.6305 57.219 72.5392 70.2698 88.463 70.2698C104.387 70.2698 117.296 57.219 117.296 41.12C117.296 25.021 104.387 11.9702 88.463 11.9702ZM52.5825 41.12C52.5825 21.0857 68.6468 4.84473 88.463 4.84473C108.279 4.84473 124.344 21.0857 124.344 41.12C124.344 61.1543 108.279 77.3953 88.463 77.3953C68.6468 77.3953 52.5825 61.1543 52.5825 41.12Z" fill="#AADBF6"/>
<path fill-rule="evenodd" clip-rule="evenodd" d="M63.7955 -30.4595C47.8718 -30.4595 34.963 -17.4086 34.963 -1.30965C34.963 14.7893 47.8718 27.8401 63.7955 27.8401C79.7193 27.8401 92.6281 14.7893 92.6281 -1.30965C92.6281 -17.4086 79.7193 -30.4595 63.7955 -30.4595ZM27.915 -1.30965C27.915 -21.344 43.9793 -37.585 63.7955 -37.585C83.6118 -37.585 99.676 -21.344 99.676 -1.30965C99.676 18.7246 83.6118 34.9657 63.7955 34.9657C43.9793 34.9657 27.915 18.7246 27.915 -1.30965Z" fill="#4FACE9"/>
<path fill-rule="evenodd" clip-rule="evenodd" d="M-9.24694 11.9702C-25.1707 11.9702 -38.0795 25.021 -38.0795 41.12C-38.0795 57.219 -25.1707 70.2698 -9.24694 70.2698C6.67683 70.2698 19.5856 57.219 19.5856 41.12C19.5856 25.021 6.67683 11.9702 -9.24694 11.9702ZM-45.1274 41.12C-45.1274 21.0857 -29.0632 4.84473 -9.24694 4.84473C10.5693 4.84473 26.6336 21.0857 26.6336 41.12C26.6336 61.1543 10.5693 77.3953 -9.24694 77.3953C-29.0632 77.3953 -45.1274 61.1543 -45.1274 41.12Z" fill="#AADBF6"/>
<path fill-rule="evenodd" clip-rule="evenodd" d="M15.7413 54.3989C-0.182434 54.3989 -13.0912 67.4498 -13.0912 83.5487C-13.0912 99.6477 -0.182434 112.699 15.7413 112.699C31.6651 112.699 44.5739 99.6477 44.5739 83.5487C44.5739 67.4498 31.6651 54.3989 15.7413 54.3989ZM-20.1392 83.5487C-20.1392 63.5144 -4.07491 47.2734 15.7413 47.2734C35.5576 47.2734 51.6218 63.5144 51.6218 83.5487C51.6218 103.583 35.5576 119.824 15.7413 119.824C-4.07491 119.824 -20.1392 103.583 -20.1392 83.5487Z" fill="#4FACE9"/>
<path fill-rule="evenodd" clip-rule="evenodd" d="M15.7413 -31.4311C-0.182434 -31.4311 -13.0912 -18.3803 -13.0912 -2.28134C-13.0912 13.8176 -0.182434 26.8685 15.7413 26.8685C31.6651 26.8685 44.5739 13.8176 44.5739 -2.28134C44.5739 -18.3803 31.6651 -31.4311 15.7413 -31.4311ZM-20.1392 -2.28134C-20.1392 -22.3156 -4.07491 -38.5566 15.7413 -38.5566C35.5576 -38.5566 51.6218 -22.3156 51.6218 -2.28134C51.6218 17.753 35.5576 33.994 15.7413 33.994C-4.07491 33.994 -20.1392 17.753 -20.1392 -2.28134Z" fill="#274C9A"/>
<path fill-rule="evenodd" clip-rule="evenodd" d="M63.7955 54.3989C47.8718 54.3989 34.963 67.4498 34.963 83.5487C34.963 99.6477 47.8718 112.699 63.7955 112.699C79.7193 112.699 92.6281 99.6477 92.6281 83.5487C92.6281 67.4498 79.7193 54.3989 63.7955 54.3989ZM27.915 83.5487C27.915 63.5144 43.9793 47.2734 63.7955 47.2734C83.6118 47.2734 99.676 63.5144 99.676 83.5487C99.676 103.583 83.6118 119.824 63.7955 119.824C43.9793 119.824 27.915 103.583 27.915 83.5487Z" fill="#274C9A"/>
</g>
<path d="M106.233 46.7407H109.359C114.427 46.7407 117.937 46.5177 119.889 46.0717C121.842 45.6257 123.465 44.8619 124.761 43.7801C126.45 42.3568 127.736 40.5207 128.618 38.2718C129.5 36.023 129.941 33.4468 129.941 30.5432C129.941 27.6206 129.505 25.0539 128.632 22.8429C127.759 20.632 126.469 18.8054 124.761 17.3631C123.465 16.2624 121.818 15.4796 119.819 15.0146C117.82 14.5497 114.333 14.3172 109.359 14.3172H106.233V46.7407ZM101.278 51.4092V9.73407H109.19C115.047 9.73407 119.171 10.033 121.565 10.6308C123.958 11.2286 126.056 12.2296 127.858 13.634C130.223 15.4748 132.016 17.8281 133.236 20.6937C134.456 23.5594 135.066 26.8615 135.066 30.6001C135.066 34.3197 134.461 37.6076 133.25 40.4638C132.039 43.3199 130.242 45.6684 127.858 47.5093C126.056 48.9136 124.005 49.9147 121.706 50.5125C119.406 51.1103 115.826 51.4092 110.964 51.4092H101.278ZM166.458 39.7524L151.67 22.761V51.4092H146.883V8.08301L166.458 31.8678L186.034 8.08301V51.4092H180.606V22.761L166.458 39.7524Z" fill="#4FACE9"/>
<path d="M106.618 69.7485L101.776 57.7213H103.255L106.618 66.5776L109.965 57.7213H111.436L106.618 69.7485Z" fill="#274C9B"/>
<path d="M113.922 69.2977V57.7213H119.96V58.9786H115.283V62.2997H119.96V63.5807H115.283V68.0167H119.96V69.2977H113.922Z" fill="#274C9B"/>
<path d="M123.556 69.2977V57.2627L131.933 66.5143V57.7213H133.231V69.7485L124.855 60.5996V69.2977H123.556Z" fill="#274C9B"/>
<path d="M139.26 69.2977V59.034H136.022V57.7213H143.859V59.034H140.637V69.2977H139.26Z" fill="#274C9B"/>
<path d="M146.611 57.7213H147.988V64.925C147.988 66.0952 148.233 66.9545 148.723 67.5028C149.218 68.051 149.992 68.3251 151.046 68.3251C152.099 68.3251 152.871 68.051 153.361 67.5028C153.856 66.9545 154.104 66.0952 154.104 64.925V57.7213H155.488V64.925C155.488 66.4906 155.118 67.6635 154.378 68.4437C153.642 69.2187 152.532 69.6061 151.046 69.6061C149.565 69.6061 148.454 69.2187 147.714 68.4437C146.979 67.6635 146.611 66.4906 146.611 64.925V57.7213Z" fill="#274C9B"/>
<path d="M159.484 69.2977V57.7213H162.174C162.941 57.7213 163.501 57.7661 163.856 57.8557C164.216 57.9401 164.531 58.0877 164.802 58.2986C165.141 58.5674 165.404 58.9285 165.592 59.3819C165.78 59.83 165.874 60.3281 165.874 60.8764C165.874 61.8253 165.61 62.5475 165.084 63.043C164.562 63.5333 163.796 63.7784 162.784 63.7784H162.542L166.914 69.2977H165.185L161.009 63.7784H160.813V69.2977H159.484ZM160.813 58.8837V62.7583H161.854C162.917 62.7583 163.629 62.6213 163.989 62.3471C164.349 62.0678 164.528 61.5828 164.528 60.8922C164.528 60.1489 164.343 59.6296 163.973 59.3344C163.603 59.034 162.896 58.8837 161.854 58.8837H160.813Z" fill="#274C9B"/>
<path d="M169.337 69.2977V57.7213H175.375V58.9786H170.698V62.2997H175.375V63.5807H170.698V68.0167H175.375V69.2977H169.337Z" fill="#274C9B"/>
<path d="M183.141 62.869C183.886 63.1906 184.447 63.6176 184.822 64.15C185.203 64.6825 185.393 65.3124 185.393 66.0399C185.393 67.1048 185.057 67.964 184.384 68.6177C183.717 69.2661 182.83 69.5903 181.725 69.5903C180.823 69.5903 180.067 69.3584 179.457 68.8945C178.847 68.4253 178.435 67.7611 178.221 66.9018L179.457 66.285C179.624 66.9861 179.897 67.5186 180.278 67.8823C180.664 68.2408 181.146 68.42 181.725 68.42C182.408 68.42 182.961 68.2223 183.383 67.827C183.806 67.4263 184.017 66.9071 184.017 66.2692C184.017 65.7526 183.868 65.3045 183.571 64.925C183.279 64.5401 182.836 64.2159 182.241 63.9523L180.849 63.3514C180.088 63.0298 179.519 62.616 179.144 62.1099C178.774 61.6039 178.589 60.9976 178.589 60.2912C178.589 59.4689 178.891 58.7888 179.496 58.2511C180.101 57.7134 180.873 57.4446 181.811 57.4446C182.499 57.4446 183.094 57.5922 183.594 57.8874C184.1 58.1826 184.494 58.6175 184.775 59.1921L183.649 59.9196C183.394 59.4715 183.107 59.1394 182.789 58.9232C182.471 58.7018 182.111 58.5911 181.709 58.5911C181.198 58.5911 180.779 58.7493 180.45 59.0656C180.127 59.3819 179.965 59.7852 179.965 60.2754C179.965 60.6866 180.09 61.0424 180.341 61.3429C180.591 61.6434 180.979 61.9096 181.506 62.1416L183.141 62.869Z" fill="#274C9B"/>
</svg>
